# xmcd
#
# Track frame offsets:
# 222
# 27142
# 50907
# 72520
# 91490
# 112787
# 135790
# 165372
# 186370
#
# Disc length: 2829 seconds
#
# Revision: 0
# Processed by: cddbd v1.5.2PL0 Copyright (c) Steve Scherf et al.
# Submitted via: Audion 3.0.2 (http://www.panic.com/audion/)
#
DISCID=700b0b09
DTITLE=Snake Davis (with John Ellis) - Wonderful World
DYEAR=1900
DGENRE=
TTITLE0=Wonderful world
TTITLE1=Natural woman
TTITLE2=Dog rough
TTITLE3=Just my imagination
TTITLE4=Hard to handle
TTITLE5=Now you're one
TTITLE6=No woman no cry
TTITLE7=If I had a hammer
TTITLE8=Killing me softly
EXTD=
EXTT0=
EXTT1=
EXTT2=
EXTT3=
EXTT4=
EXTT5=
EXTT6=
EXTT7=
EXTT8=
PLAYORDER=
